function data()
return {
	subMeshes = {
		{
			indices = {
				normal = {
					count = 7200,
					offset = 77440,
				},
				position = {
					count = 7200,
					offset = 63040,
				},
				tangent = {
					count = 7200,
					offset = 84640,
				},
				uv0 = {
					count = 7200,
					offset = 70240,
				},
			},
		},
	},
	vertexAttr = {
		normal = {
			count = 21600,
			numComp = 3,
			offset = 12640,
		},
		position = {
			count = 7200,
			numComp = 3,
			offset = 0,
		},
		tangent = {
			count = 28800,
			numComp = 4,
			offset = 34240,
		},
		uv0 = {
			count = 5440,
			numComp = 2,
			offset = 7200,
		},
	},
}
end
