function data()
return {
	subMeshes = {
		{
			indices = {
				normal = {
					count = 114648,
					offset = 1259792,
				},
				position = {
					count = 114648,
					offset = 1030496,
				},
				tangent = {
					count = 114648,
					offset = 1374440,
				},
				uv0 = {
					count = 114648,
					offset = 1145144,
				},
			},
		},
	},
	vertexAttr = {
		normal = {
			count = 343944,
			numComp = 3,
			offset = 227960,
		},
		position = {
			count = 134232,
			numComp = 3,
			offset = 0,
		},
		tangent = {
			count = 458592,
			numComp = 4,
			offset = 571904,
		},
		uv0 = {
			count = 93728,
			numComp = 2,
			offset = 134232,
		},
	},
}
end
