function data()
return {
	subMeshes = {
		{
			indices = {
				normal = {
					count = 73308,
					offset = 843040,
				},
				position = {
					count = 73308,
					offset = 696424,
				},
				tangent = {
					count = 73308,
					offset = 916348,
				},
				uv0 = {
					count = 73308,
					offset = 769732,
				},
			},
		},
	},
	vertexAttr = {
		normal = {
			count = 219924,
			numComp = 3,
			offset = 183268,
		},
		position = {
			count = 109692,
			numComp = 3,
			offset = 0,
		},
		tangent = {
			count = 293232,
			numComp = 4,
			offset = 403192,
		},
		uv0 = {
			count = 73576,
			numComp = 2,
			offset = 109692,
		},
	},
}
end
