function data()
return {
	subMeshes = {
		{
			indices = {
				normal = {
					count = 40284,
					offset = 482132,
				},
				position = {
					count = 40284,
					offset = 401564,
				},
				tangent = {
					count = 40284,
					offset = 522416,
				},
				uv0 = {
					count = 40284,
					offset = 441848,
				},
			},
		},
	},
	vertexAttr = {
		normal = {
			count = 120852,
			numComp = 3,
			offset = 119576,
		},
		position = {
			count = 60816,
			numComp = 3,
			offset = 0,
		},
		tangent = {
			count = 161136,
			numComp = 4,
			offset = 240428,
		},
		uv0 = {
			count = 58760,
			numComp = 2,
			offset = 60816,
		},
	},
}
end
