function data()
return {
	subMeshes = {
		{
			indices = {
				normal = {
					count = 67320,
					offset = 784276,
				},
				position = {
					count = 67320,
					offset = 649636,
				},
				tangent = {
					count = 67320,
					offset = 851596,
				},
				uv0 = {
					count = 67320,
					offset = 716956,
				},
			},
		},
	},
	vertexAttr = {
		normal = {
			count = 201960,
			numComp = 3,
			offset = 178396,
		},
		position = {
			count = 89028,
			numComp = 3,
			offset = 0,
		},
		tangent = {
			count = 269280,
			numComp = 4,
			offset = 380356,
		},
		uv0 = {
			count = 89368,
			numComp = 2,
			offset = 89028,
		},
	},
}
end
