function data()
return {
	subMeshes = {
		{
			indices = {
				normal = {
					count = 7140,
					offset = 106956,
				},
				position = {
					count = 7140,
					offset = 92676,
				},
				tangent = {
					count = 7140,
					offset = 114096,
				},
				uv0 = {
					count = 7140,
					offset = 99816,
				},
			},
		},
	},
	vertexAttr = {
		normal = {
			count = 21420,
			numComp = 3,
			offset = 42696,
		},
		position = {
			count = 31608,
			numComp = 3,
			offset = 0,
		},
		tangent = {
			count = 28560,
			numComp = 4,
			offset = 64116,
		},
		uv0 = {
			count = 11088,
			numComp = 2,
			offset = 31608,
		},
	},
}
end
