function data()
return {
	subMeshes = {
		{
			indices = {
				normal = {
					count = 18240,
					offset = 195808,
				},
				position = {
					count = 18240,
					offset = 159328,
				},
				tangent = {
					count = 18240,
					offset = 214048,
				},
				uv0 = {
					count = 18240,
					offset = 177568,
				},
			},
		},
	},
	vertexAttr = {
		normal = {
			count = 54720,
			numComp = 3,
			offset = 31648,
		},
		position = {
			count = 17280,
			numComp = 3,
			offset = 0,
		},
		tangent = {
			count = 72960,
			numComp = 4,
			offset = 86368,
		},
		uv0 = {
			count = 14368,
			numComp = 2,
			offset = 17280,
		},
	},
}
end
