function data()
return {
	subMeshes = {
		{
			indices = {
				normal = {
					count = 129672,
					offset = 914892,
				},
				position = {
					count = 129672,
					offset = 655548,
				},
				tangent = {
					count = 129672,
					offset = 1044564,
				},
				uv0 = {
					count = 129672,
					offset = 785220,
				},
				uv1 = {
					count = 129672,
					offset = 1174236,
				},
			},
		},
	},
	vertexAttr = {
		normal = {
			count = 73284,
			numComp = 3,
			offset = 249272,
		},
		position = {
			count = 138936,
			numComp = 3,
			offset = 0,
		},
		tangent = {
			count = 221824,
			numComp = 4,
			offset = 322556,
		},
		uv0 = {
			count = 110336,
			numComp = 2,
			offset = 138936,
		},
		uv1 = {
			count = 111168,
			numComp = 2,
			offset = 544380,
		},
	},
}
end
