function data()
return {
	subMeshes = {
		{
			indices = {
				normal = {
					count = 13776,
					offset = 185568,
				},
				position = {
					count = 13776,
					offset = 158016,
				},
				tangent = {
					count = 13776,
					offset = 199344,
				},
				uv0 = {
					count = 13776,
					offset = 171792,
				},
				uv1 = {
					count = 13776,
					offset = 213120,
				},
			},
		},
	},
	vertexAttr = {
		normal = {
			count = 41328,
			numComp = 3,
			offset = 43432,
		},
		position = {
			count = 25200,
			numComp = 3,
			offset = 0,
		},
		tangent = {
			count = 55104,
			numComp = 4,
			offset = 84760,
		},
		uv0 = {
			count = 18232,
			numComp = 2,
			offset = 25200,
		},
		uv1 = {
			count = 18152,
			numComp = 2,
			offset = 139864,
		},
	},
}
end
