function data()
return {
	subMeshes = {
		{
			indices = {
				normal = {
					count = 8484,
					offset = 118232,
				},
				position = {
					count = 8484,
					offset = 101264,
				},
				tangent = {
					count = 8484,
					offset = 126716,
				},
				uv0 = {
					count = 8484,
					offset = 109748,
				},
				uv1 = {
					count = 8484,
					offset = 135200,
				},
			},
		},
	},
	vertexAttr = {
		normal = {
			count = 25452,
			numComp = 3,
			offset = 29676,
		},
		position = {
			count = 17796,
			numComp = 3,
			offset = 0,
		},
		tangent = {
			count = 33936,
			numComp = 4,
			offset = 55128,
		},
		uv0 = {
			count = 11880,
			numComp = 2,
			offset = 17796,
		},
		uv1 = {
			count = 12200,
			numComp = 2,
			offset = 89064,
		},
	},
}
end
