function data()
return {
	subMeshes = {
		{
			indices = {
				normal = {
					count = 36972,
					offset = 465036,
				},
				position = {
					count = 36972,
					offset = 391092,
				},
				tangent = {
					count = 36972,
					offset = 502008,
				},
				uv0 = {
					count = 36972,
					offset = 428064,
				},
				uv1 = {
					count = 36972,
					offset = 538980,
				},
			},
		},
	},
	vertexAttr = {
		normal = {
			count = 110916,
			numComp = 3,
			offset = 91904,
		},
		position = {
			count = 49536,
			numComp = 3,
			offset = 0,
		},
		tangent = {
			count = 147888,
			numComp = 4,
			offset = 202820,
		},
		uv0 = {
			count = 42368,
			numComp = 2,
			offset = 49536,
		},
		uv1 = {
			count = 40384,
			numComp = 2,
			offset = 350708,
		},
	},
}
end
