function data()
return {
	subMeshes = {
		{
			indices = {
				normal = {
					count = 11652,
					offset = 154632,
				},
				position = {
					count = 11652,
					offset = 131328,
				},
				tangent = {
					count = 11652,
					offset = 166284,
				},
				uv0 = {
					count = 11652,
					offset = 142980,
				},
				uv1 = {
					count = 11652,
					offset = 177936,
				},
			},
		},
	},
	vertexAttr = {
		normal = {
			count = 34956,
			numComp = 3,
			offset = 35564,
		},
		position = {
			count = 21156,
			numComp = 3,
			offset = 0,
		},
		tangent = {
			count = 46608,
			numComp = 4,
			offset = 70520,
		},
		uv0 = {
			count = 14408,
			numComp = 2,
			offset = 21156,
		},
		uv1 = {
			count = 14200,
			numComp = 2,
			offset = 117128,
		},
	},
}
end
