function data()
return {
	subMeshes = {
		{
			indices = {
				normal = {
					count = 113976,
					offset = 952900,
				},
				position = {
					count = 113976,
					offset = 724948,
				},
				tangent = {
					count = 113976,
					offset = 1066876,
				},
				uv0 = {
					count = 113976,
					offset = 838924,
				},
				uv1 = {
					count = 113976,
					offset = 1180852,
				},
			},
		},
	},
	vertexAttr = {
		normal = {
			count = 81444,
			numComp = 3,
			offset = 286080,
		},
		position = {
			count = 168528,
			numComp = 3,
			offset = 0,
		},
		tangent = {
			count = 235648,
			numComp = 4,
			offset = 367524,
		},
		uv0 = {
			count = 117552,
			numComp = 2,
			offset = 168528,
		},
		uv1 = {
			count = 121776,
			numComp = 2,
			offset = 603172,
		},
	},
}
end
