function data()
return {
	subMeshes = {
		{
			indices = {
				normal = {
					count = 6696,
					offset = 72288,
				},
				position = {
					count = 6696,
					offset = 58896,
				},
				tangent = {
					count = 6696,
					offset = 78984,
				},
				uv0 = {
					count = 6696,
					offset = 65592,
				},
			},
		},
	},
	vertexAttr = {
		normal = {
			count = 20088,
			numComp = 3,
			offset = 12024,
		},
		position = {
			count = 6984,
			numComp = 3,
			offset = 0,
		},
		tangent = {
			count = 26784,
			numComp = 4,
			offset = 32112,
		},
		uv0 = {
			count = 5040,
			numComp = 2,
			offset = 6984,
		},
	},
}
end
